<?xml version="1.0" standalone="no"?>
<!DOCTYPE svg PUBLIC "-//W3C//DTD SVG 20010904//EN"
 "http://www.w3.org/TR/2001/REC-SVG-20010904/DTD/svg10.dtd">
<svg version="1.0" xmlns="http://www.w3.org/2000/svg"
 width="580.000000pt" height="580.000000pt" viewBox="0 0 580.000000 580.000000"
 preserveAspectRatio="xMidYMid meet">
<metadata>
Created by potrace 1.14, written by Peter Selinger 2001-2017
</metadata>
<g transform="translate(0.000000,580.000000) scale(0.100000,-0.100000)"
fill="#000000" stroke="none">
<path d="M3145 5769 c-27 -4 -72 -10 -100 -13 -54 -6 -81 -10 -220 -32 -114
-18 -139 -22 -200 -34 -27 -5 -62 -12 -77 -14 -15 -3 -31 -7 -36 -10 -4 -2
-26 -7 -48 -10 -21 -2 -61 -10 -89 -16 -27 -7 -59 -14 -70 -16 -11 -2 -29 -6
-40 -9 -160 -38 -244 -57 -265 -61 -31 -6 -143 -32 -190 -44 -19 -5 -57 -14
-85 -20 -27 -7 -61 -15 -75 -20 -14 -4 -50 -13 -80 -20 -30 -6 -68 -16 -85
-21 -16 -5 -86 -22 -155 -39 -69 -17 -156 -40 -195 -51 -38 -11 -86 -23 -105
-28 -63 -17 -114 -30 -240 -67 -69 -19 -132 -37 -142 -39 -31 -7 -153 -69
-208 -106 -31 -20 -72 -55 -92 -77 -35 -39 -95 -151 -104 -195 -2 -12 -9 -47
-14 -77 -18 -94 -25 -489 -25 -1450 0 -1190 8 -1454 50 -1652 23 -112 115
-327 162 -378 13 -14 23 -28 23 -32 0 -3 16 -23 35 -42 19 -20 35 -38 35 -40
0 -8 60 -64 108 -103 26 -21 52 -42 58 -48 6 -5 22 -17 34 -25 13 -8 31 -22
40 -30 17 -15 32 -25 97 -61 19 -11 64 -39 101 -63 37 -25 80 -49 95 -55 15
-6 27 -15 27 -21 0 -5 5 -10 10 -10 6 0 40 -18 76 -40 36 -22 68 -40 70 -40 2
0 48 -28 102 -63 53 -34 122 -78 152 -97 30 -19 57 -38 58 -42 2 -5 8 -8 14
-8 5 0 23 -9 39 -21 16 -11 29 -17 29 -12 0 4 4 3 8 -2 11 -17 69 -55 74 -49
3 2 11 -2 18 -11 7 -8 16 -15 21 -15 5 0 28 -12 52 -27 23 -15 44 -28 47 -29
20 -4 47 -20 57 -33 7 -9 13 -13 13 -9 0 4 23 -6 50 -22 28 -17 54 -30 57 -30
3 0 22 -10 42 -22 20 -13 38 -23 41 -24 3 0 35 -15 72 -32 37 -17 86 -36 110
-42 24 -6 52 -13 63 -16 33 -9 277 -11 323 -2 24 4 64 10 90 13 26 4 54 8 62
10 8 3 33 7 54 11 22 3 69 12 105 20 36 8 80 17 97 19 17 3 76 17 130 31 54
14 106 27 114 29 8 2 44 11 80 20 36 9 76 19 89 22 14 2 28 6 33 9 4 3 16 7
25 9 10 1 47 11 83 20 36 9 76 19 90 21 14 3 32 7 40 11 8 3 17 7 20 8 3 1 12
4 20 8 8 3 89 26 180 50 91 25 242 67 336 95 93 29 181 54 195 56 13 2 24 5
24 6 0 1 7 3 15 5 30 6 496 163 565 190 90 35 264 121 290 143 29 24 48 58 74
129 13 35 27 63 31 63 10 0 43 101 59 175 10 49 16 106 26 270 13 200 16 243
20 285 2 25 7 115 11 200 3 85 7 162 9 170 2 8 6 121 10 250 4 129 9 253 11
275 2 22 6 369 9 770 4 686 4 737 -14 843 -57 337 -159 461 -551 670 -36 19
-84 45 -108 58 -23 13 -86 47 -140 75 -53 29 -122 65 -152 82 -30 16 -91 48
-135 71 -44 22 -82 43 -85 46 -19 19 -808 410 -829 410 -11 0 -22 4 -25 9 -3
5 -18 11 -33 14 -16 3 -46 10 -68 16 -108 29 -291 44 -380 30z"/>
</g>
</svg>
